PathFileType	4	(X/Y/Z)	D:\TRACE\v60_Jaco2_6-2-23\v60_baseline_3-platform.trc
DataRate	CameraRate	NumFrames	NumMarkers	Units	OrigDataRate	OrigDataStartFrame	OrigNumFrames
100.00	100.00	      68	5	mm	100.00	2438	      6500
Frame#	Time	Left_Front			Right_Front			Left_Aft			Right_Aft			Post			
		X1	Y1	Z1	X2	Y2	Z2	X3	Y3	Z3	X4	Y4	Z4	X5	Y5	Z5	

2438	24.370	-800.57892	8.87575	-638.76544	768.92426	9.86506	-644.60504	-708.46625	7.66066	496.24295	733.19702	6.73187	505.24188	-14.02172	1308.10925	-961.84851	
2439	24.380	-800.60492	8.90914	-638.75952	768.87543	9.81967	-644.74060	-708.48724	7.68409	496.18939	733.32355	6.81824	505.24600	-14.11303	1308.15259	-961.90472	
2440	24.390	-800.62939	8.90075	-638.72736	768.84869	9.84032	-644.76617	-708.47510	7.61316	496.17520	733.32117	6.81559	505.24265	-13.99768	1308.14624	-961.91077	
2441	24.400	-800.58679	8.78985	-638.82990	768.86908	9.88971	-644.67877	-708.50629	7.59591	496.24542	733.35138	6.83613	505.27115	-13.96158	1308.15552	-961.95148	
2442	24.410	-800.54681	8.78738	-638.86047	768.88043	9.80130	-644.72211	-708.43427	7.57408	496.19757	733.21509	6.75594	505.21655	-14.00814	1308.07471	-961.93500	
2443	24.420	-800.53766	8.83303	-638.84857	768.90088	9.84994	-644.70160	-708.41217	7.58352	496.19443	733.23492	6.77046	505.22943	-14.03648	1308.10193	-961.97534	
2444	24.430	-800.57971	8.89999	-638.81787	768.91980	9.86884	-644.62952	-708.39795	7.60732	496.22589	733.36694	6.83365	505.28091	-14.06990	1308.15491	-961.94763	
2445	24.440	-800.58783	8.93521	-638.77295	768.89331	9.84689	-644.76367	-708.48413	7.64493	496.19543	733.43304	6.91223	505.27264	-14.01431	1308.14648	-961.87274	
2446	24.450	-800.58124	8.81943	-638.81665	768.91486	9.89283	-644.64203	-708.46649	7.56716	496.17596	733.40521	6.90243	505.25519	-13.93369	1308.11047	-961.83246	
2447	24.460	-800.56195	8.77717	-638.90924	768.81775	9.77719	-644.77216	-708.45490	7.59457	496.21887	733.33722	6.88157	505.23199	-13.99993	1308.13330	-961.93134	
2448	24.470	-800.49780	8.92125	-638.86218	768.90741	9.92468	-644.64734	-708.44592	7.56033	496.13782	733.24982	6.83589	505.24319	-14.07674	1308.12402	-961.90576	
2449	24.480	-800.47028	9.18899	-638.77887	769.04413	10.17516	-644.67120	-708.43152	7.60799	496.19794	733.34607	6.86455	505.26443	-14.10821	1308.09241	-961.93506	
2450	24.490	-800.48560	9.21853	-638.74365	769.21350	10.20847	-644.55859	-708.41510	7.66931	496.20093	733.34790	6.85848	505.25742	-14.01535	1308.13489	-961.99780	
2451	24.500	-800.56201	9.03128	-638.73767	769.23700	10.06105	-644.49414	-708.50458	7.59415	496.18982	733.38116	6.90146	505.22366	-14.04749	1308.11853	-962.04919	
2452	24.510	-800.60620	8.67085	-638.89734	769.27539	9.83592	-644.49487	-708.49884	7.50558	496.15942	733.44128	6.95505	505.24158	-14.11283	1308.07007	-961.98669	
2453	24.520	-800.56812	8.64100	-638.91492	769.22363	9.91931	-644.49268	-707.95557	7.01685	497.02362	733.36530	6.87264	505.24240	-13.89421	1307.94385	-962.04358	
2454	24.530	-800.44507	8.83829	-638.93695	769.18335	10.03155	-644.59717	-708.44543	7.53293	496.12793	733.29224	6.81192	505.22446	-13.92786	1307.94812	-962.13086	
2455	24.540	-800.43433	9.13793	-638.77875	769.23328	10.03525	-644.49286	-708.62256	7.83936	496.13904	733.29572	6.81388	505.26913	-14.12456	1308.09888	-962.19165	
2456	24.550	-800.51514	9.17206	-638.69775	769.16888	10.10991	-644.52240	-708.62878	7.93119	496.12836	733.31946	6.84792	505.26468	-14.03997	1308.19592	-962.26038	
2457	24.560	-800.60925	8.93712	-638.79755	769.20947	10.05408	-644.53601	-708.67755	7.90145	496.13644	733.04779	6.88959	505.34570	-14.04078	1308.20435	-962.14252	
2458	24.570	-800.59192	8.72974	-638.92706	769.19806	10.00630	-644.52832	-708.65442	7.81214	496.10294	733.37256	6.93528	505.26340	-14.04425	1308.06836	-961.97278	
2459	24.580	-800.47760	8.76125	-638.95697	769.20715	9.93207	-644.50574	-708.61139	7.79133	496.07529	733.29059	6.83384	505.24448	-14.06410	1307.99988	-961.80133	
2460	24.590	-800.43335	9.04569	-638.83240	769.24579	9.95000	-644.46887	-708.64600	7.86895	496.06201	733.41321	6.90169	505.28461	-13.91833	1308.01904	-961.71552	
2461	24.600	-800.49127	9.09730	-638.70325	769.26501	10.09126	-644.38446	-708.64386	7.90689	496.14063	733.30249	6.84979	505.24353	-14.09783	1308.08423	-961.75885	
2462	24.610	-800.57281	9.06148	-638.72699	769.21832	10.12320	-644.49908	-708.63770	7.93641	496.13828	733.31476	6.86923	505.22772	-14.15320	1308.11011	-961.83588	
2463	24.620	-800.58350	8.93440	-638.82916	769.15033	10.06000	-644.59546	-708.66040	7.96741	496.10385	733.31738	6.91569	505.24332	-13.98965	1308.13855	-961.96545	
2464	24.630	-800.54370	8.87185	-638.90710	769.21759	9.98946	-644.54523	-708.69556	7.89017	496.06555	733.30359	6.89322	505.23492	-13.98095	1308.07666	-962.10461	
2465	24.640	-800.43182	8.97834	-638.84235	769.18073	9.99803	-644.50354	-708.67914	7.83464	496.07166	733.94843	7.22479	506.27588	-13.99237	1308.01990	-962.15967	
2466	24.650	-800.45020	9.02892	-638.80048	769.23096	9.98331	-644.49304	-708.62061	7.85281	496.12381	733.89722	7.15053	506.21820	-13.99473	1308.05493	-962.23621	
2467	24.660	-800.56024	9.09501	-638.65332	769.20026	10.04259	-644.51685	-708.64508	7.90057	496.12799	733.44495	7.06327	506.40710	-13.99240	1308.13892	-962.29352	
2468	24.670	-800.59125	9.00547	-638.69476	769.20288	10.09060	-644.52692	-708.65485	7.91737	496.10361	733.86292	7.12885	506.16916	-13.98393	1308.21130	-962.25879	
2469	24.680	-800.55878	8.91413	-638.83167	769.12982	9.99670	-644.59839	-708.74670	8.00930	496.11594	733.76489	7.11784	506.03046	-14.08663	1308.14148	-962.08411	
2470	24.690	-800.51294	8.83819	-638.94427	769.12390	10.00992	-644.53723	-708.73474	7.91018	496.10400	733.71643	7.06743	505.90329	-14.12827	1308.05847	-961.83618	
2471	24.700	-800.49200	8.92174	-638.87744	769.14740	9.94782	-644.54224	-708.74786	7.95348	496.14520	733.68225	7.07647	505.93967	-14.02819	1307.99451	-961.70258	
2472	24.710	-800.52197	8.99751	-638.76703	769.14325	10.00972	-644.53015	-708.73248	7.97982	496.14206	733.64337	7.04392	505.88171	-14.08278	1308.03772	-961.61743	
2473	24.720	-800.59869	9.03310	-638.71631	769.10559	9.96957	-644.63715	-708.77545	8.05681	496.15170	733.68787	7.07084	505.87839	-14.13985	1308.10339	-961.70038	
2474	24.730	-800.60004	9.03478	-638.72650	769.10706	10.01809	-644.65515	-708.77881	8.03853	496.13748	733.67444	7.07704	505.89053	-14.08347	1308.12378	-961.88678	
2475	24.740	-800.54675	8.90595	-638.82373	769.11719	10.02245	-644.59314	-708.87433	8.13356	496.08575	733.67761	7.06390	505.88226	-14.08560	1308.12231	-961.97260	
2476	24.750	-800.46545	8.89185	-638.95569	769.07977	9.93492	-644.67267	-708.86584	8.07648	496.08850	733.78223	7.10994	505.87653	-14.04857	1308.09631	-962.10669	
2477	24.760	-800.48273	8.97920	-638.87103	768.99219	9.96086	-644.65820	-708.86133	8.15617	496.05618	733.76904	7.13013	505.88269	-14.06159	1308.07544	-962.12036	
2478	24.770	-800.58875	9.08148	-638.73773	768.91718	9.86592	-644.70709	-708.85791	8.12876	496.12009	733.71606	7.09956	505.86887	-14.06593	1308.10925	-962.15710	
2479	24.780	-800.60303	9.07127	-638.72644	768.91235	9.85836	-644.61316	-708.86755	8.13646	496.12033	733.67383	7.08069	505.86621	-14.07036	1308.11377	-962.11511	
2480	24.790	-800.52289	8.89969	-638.82056	768.95892	9.81137	-644.62103	-708.84021	8.13689	496.11679	733.65771	7.05561	505.83435	-14.03686	1308.10596	-962.05603	
2481	24.800	-800.47675	8.96106	-638.85455	768.94409	9.80705	-644.63708	-708.82904	8.10719	496.07956	733.69116	7.11194	505.83243	-14.03427	1308.07581	-961.88928	
2482	24.810	-800.45764	8.92813	-638.88928	768.93427	9.81567	-644.60889	-708.80298	8.04937	496.07306	733.81592	7.21134	505.82877	-14.11870	1308.06592	-961.91595	
2483	24.820	-800.50970	9.04560	-638.83154	768.90643	9.71706	-644.71069	-708.81592	8.07767	496.05151	733.70306	7.14056	505.80573	-14.13049	1308.03979	-961.86786	
2484	24.830	-800.58624	9.11309	-638.66711	768.98639	9.87187	-644.60382	-708.81250	8.08586	496.13828	733.67737	7.09177	505.82385	-14.04858	1308.06506	-961.95947	
2485	24.840	-800.58197	8.96305	-638.72235	768.89398	9.78372	-644.70538	-708.78998	8.03427	496.11060	733.61353	7.05981	505.84146	-14.04664	1308.11414	-961.98932	
2486	24.850	-800.54541	8.95357	-638.76654	768.88965	9.82338	-644.71790	-708.82025	8.03026	496.11813	733.64215	7.07222	505.82773	-14.07010	1308.12378	-962.03455	
2487	24.860	-800.42755	8.92715	-638.84528	768.68597	9.78180	-644.97430	-708.76263	8.05920	496.10333	733.73364	7.13836	505.86282	-13.98862	1308.08862	-962.06287	
2488	24.870	-800.46857	8.94767	-638.89612	769.35291	10.18058	-644.39905	-708.70032	7.96783	496.03354	733.76184	7.17560	505.80109	-14.00849	1308.09680	-962.03326	
2489	24.880	-800.51093	9.08508	-638.79095	769.31726	10.24693	-644.40320	-708.83679	8.11915	496.09473	733.72443	7.13137	505.80142	-14.09973	1308.09937	-962.05090	
2490	24.890	-800.54285	9.10795	-638.76624	768.63043	9.78135	-644.93549	-708.95435	8.27299	496.01016	733.64832	7.09621	505.80276	-13.95465	1308.01050	-961.96246	
2491	24.900	-800.54858	9.03916	-638.69348	768.81787	9.97335	-644.77417	-709.03510	8.42780	496.00076	733.63757	7.03677	505.82172	-14.06703	1308.05469	-962.02399	
2492	24.910	-800.56335	8.62493	-638.90216	768.93756	9.75834	-644.63489	-709.09027	8.53949	495.98682	733.74786	7.06250	505.80453	-14.02742	1308.10364	-962.14673	
2493	24.920	-800.54517	8.61598	-638.93176	768.90857	9.61198	-644.69928	-708.73334	8.05172	496.03369	733.75549	7.17297	505.80179	-13.94738	1307.98401	-962.04388	
2494	24.930	-800.56116	8.65453	-638.92688	768.91650	9.81421	-644.63776	-708.74689	7.99269	496.01978	733.69647	6.99924	505.78461	-13.80552	1307.93494	-962.10925	
2495	24.940	-800.59680	8.95077	-638.73676	768.84119	9.86845	-644.78479	-708.75482	7.98073	496.06589	733.64313	6.98480	505.80188	-13.80997	1307.98474	-962.18530	
2496	24.950	-800.58240	9.06838	-638.68866	768.95911	9.96490	-644.61353	-708.75519	7.99418	495.87405	733.66254	7.00524	505.82153	-14.02103	1308.17700	-962.24725	
2497	24.960	-800.55200	9.00838	-638.73035	768.98450	9.93096	-644.60773	-708.48102	7.77972	496.13531	733.72101	7.04475	505.80963	-14.11411	1308.21252	-962.19904	
2498	24.970	-800.57288	8.76064	-638.89667	768.73553	9.73997	-644.87585	-708.52258	7.84450	496.10608	733.72845	7.06290	505.80161	-14.04337	1308.13074	-962.03125	
2499	24.980	-800.55084	8.63336	-638.99353	769.37146	10.22563	-644.39752	-708.54578	7.68436	496.04688	733.73218	7.12618	505.79486	-13.82066	1307.95740	-961.80701	
2500	24.990	-800.56055	8.83852	-638.88361	769.36896	10.16417	-644.42084	-708.55737	7.64988	496.04227	733.63696	6.98825	505.79056	-13.99860	1307.96899	-961.81787	
2501	25.000	-800.54315	8.93057	-638.74438	769.36090	10.19485	-644.42621	-708.55188	7.77705	496.13220	733.63953	7.02213	505.82745	-13.95133	1308.00684	-961.86694	
2502	25.010	-800.57294	8.92702	-638.73395	769.33417	10.28826	-644.48322	-708.53705	7.83220	496.12363	733.62982	7.04138	505.78024	-14.00344	1308.08679	-961.97308	
2503	25.020	-800.55945	8.81567	-638.83435	769.35529	10.31254	-644.49701	-708.56641	7.87448	496.07138	733.63812	7.04919	505.72943	-14.08040	1308.16516	-962.13745	
2504	25.030	-800.54407	8.81435	-638.95831	769.38324	10.26881	-644.44611	-708.56549	7.79753	496.05563	733.60999	7.00482	505.69177	-13.90423	1308.11230	-962.23535	
2505	25.040	-800.54254	8.78571	-638.93396	769.34393	10.16827	-644.44458	-708.52094	7.63700	496.01288	733.58575	6.98521	505.71298	-13.89946	1308.03479	-962.22107	
